<svg width="32" height="33" viewBox="0 0 32 33" fill="none" xmlns="http://www.w3.org/2000/svg">
<path d="M28.125 0.75H3.375C1.47656 0.75 0 2.29688 0 4.125V28.875C0 30.7734 1.47656 32.25 3.375 32.25H28.125C29.9531 32.25 31.5 30.7734 31.5 28.875V4.125C31.5 2.29688 29.9531 0.75 28.125 0.75ZM25.875 18.4688C25.875 18.9609 25.4531 19.3125 25.0312 19.3125H18.5625V25.7812C18.5625 26.2734 18.1406 26.625 17.7188 26.625H13.7812C13.2891 26.625 12.9375 26.2734 12.9375 25.7812V19.3125H6.46875C5.97656 19.3125 5.625 18.9609 5.625 18.4688V14.5312C5.625 14.1094 5.97656 13.6875 6.46875 13.6875H12.9375V7.21875C12.9375 6.79688 13.2891 6.375 13.7812 6.375H17.7188C18.1406 6.375 18.5625 6.79688 18.5625 7.21875V13.6875H25.0312C25.4531 13.6875 25.875 14.1094 25.875 14.5312V18.4688Z" fill="black"/>
</svg>
