<svg xmlns="http://www.w3.org/2000/svg" width="10.599" height="9.273" viewBox="0 0 10.599 9.273">
  <path id="말풍선" d="M5.234,32c-2.927,0-5.3,1.927-5.3,4.305A3.8,3.8,0,0,0,1.03,38.92a5.253,5.253,0,0,1-.96,1.515.5.5,0,0,0,.362.838,5.022,5.022,0,0,0,2.879-.958,6.393,6.393,0,0,0,1.923.3c2.927,0,5.3-1.927,5.3-4.305S8.161,32,5.234,32Zm0,7.617a5.379,5.379,0,0,1-1.623-.25l-.47-.149-.4.286a4.451,4.451,0,0,1-1.19.6,5.192,5.192,0,0,0,.412-.832l.219-.582-.426-.451a2.847,2.847,0,0,1-.824-1.933c0-1.826,1.931-3.312,4.305-3.312s4.305,1.486,4.305,3.312S7.608,39.617,5.234,39.617Z" transform="translate(0.066 -32)" fill="#888"/>
</svg>
