<svg xmlns="http://www.w3.org/2000/svg" width="8.013" height="10.684" viewBox="0 0 8.013 10.684">
  <path id="서류" d="M6.009,5.175v.584a.251.251,0,0,1-.25.25H2.254A.251.251,0,0,1,2,5.759V5.175a.251.251,0,0,1,.25-.25H5.759A.251.251,0,0,1,6.009,5.175Zm-.25,1.5H2.254a.251.251,0,0,0-.25.25v.584a.251.251,0,0,0,.25.25H5.759a.251.251,0,0,0,.25-.25V6.928A.251.251,0,0,0,5.759,6.677ZM8.013,2.752v6.93a1,1,0,0,1-1,1H1a1,1,0,0,1-1-1V1A1,1,0,0,1,1,0H5.26a1,1,0,0,1,.707.294L7.718,2.045A1,1,0,0,1,8.013,2.752ZM5.342,1.083V2.671H6.93Zm1.669,8.6V3.672H4.841a.5.5,0,0,1-.5-.5V1H1v8.68Z" fill="#888"/>
</svg>
