<svg xmlns="http://www.w3.org/2000/svg" width="13.143" height="11.677" viewBox="0 0 13.143 11.677">
  <path id="Icon_metro-bubbles" data-name="Icon metro-bubbles" d="M14.984,15.424a1.332,1.332,0,0,0,.73,1.189v.182a2.716,2.716,0,0,1-2.341-.822,3.668,3.668,0,0,1-.944.123,3.119,3.119,0,0,1-3.286-2.921,3.119,3.119,0,0,1,3.286-2.921,3.119,3.119,0,0,1,3.286,2.921,2.694,2.694,0,0,1-.609,1.694,1.325,1.325,0,0,0-.121.556ZM8.413,5.143c3.177,0,5.761,2.061,5.839,4.626a4.477,4.477,0,0,0-1.823-.382,4.348,4.348,0,0,0-2.9,1.074,3.6,3.6,0,0,0-1.253,2.713,3.5,3.5,0,0,0,.316,1.458l-.18,0a7.214,7.214,0,0,1-.911-.058A5.689,5.689,0,0,1,3.3,16.09v-.307A2.324,2.324,0,0,0,4.762,13.9a2.2,2.2,0,0,0-.025-.327A4.468,4.468,0,0,1,2.571,9.889c0-2.621,2.615-4.746,5.841-4.746Z" transform="translate(-2.571 -5.143)" fill="#999"/>
</svg>
