<?xml version="1.0" encoding="utf-8"?>
<!-- Generator: Adobe Illustrator 25.2.2, SVG Export Plug-In . SVG Version: 6.00 Build 0)  -->
<svg version="1.1" id="레이어_1" xmlns="http://www.w3.org/2000/svg" xmlns:xlink="http://www.w3.org/1999/xlink" x="0px"
	 y="0px" viewBox="0 0 24 24" style="enable-background:new 0 0 24 24;" xml:space="preserve">
<path d="M10.1,0C9.5,0,9,0.5,9,1.1V9H4.9C4,9,3.6,10,4.2,10.6l7.1,7.1c0.3,0.3,0.9,0.3,1.3,0l7.1-7.1C20.3,10,19.9,9,19.1,9H15V1.1
	C15,0.5,14.5,0,13.9,0H10.1z M24,17.6c0-0.6-0.5-1.1-1.1-1.1H16l-2.3,2.3c-0.9,1-2.5,1-3.4,0L8,16.5H1.1C0.5,16.5,0,17,0,17.6v5.2
	C0,23.5,0.5,24,1.1,24h21.8c0.6,0,1.1-0.5,1.1-1.1V17.6z M18.2,21.8c0,0.5-0.4,0.9-0.9,0.9s-0.9-0.4-0.9-0.9s0.4-0.9,0.9-0.9
	S18.2,21.2,18.2,21.8z M21.2,21.8c0,0.5-0.4,0.9-0.9,0.9s-0.9-0.4-0.9-0.9s0.4-0.9,0.9-0.9S21.2,21.2,21.2,21.8z"/>
</svg>
