<svg width="27" height="24" viewBox="0 0 27 24" fill="none" xmlns="http://www.w3.org/2000/svg">
<path d="M18.8438 3.9375C18.6562 3.75 18.375 3.75 18.1875 3.9375L7.96875 14.1562L7.5 18.5156C7.40625 19.0781 7.92188 19.5938 8.48438 19.5L12.8438 19.0312L23.0625 8.8125C23.25 8.625 23.25 8.34375 23.0625 8.15625L18.8438 3.9375ZM26.4375 2.85938L24.1406 0.5625C23.4375 -0.140625 22.2656 -0.140625 21.5625 0.5625L19.9219 2.20312C19.7344 2.39062 19.7344 2.67188 19.9219 2.85938L24.1406 7.07812C24.3281 7.26562 24.6094 7.26562 24.7969 7.07812L26.4375 5.4375C27.1406 4.73438 27.1406 3.5625 26.4375 2.85938ZM18 16.2656V21H3V6H13.7344C13.9219 6 14.0625 5.95312 14.1562 5.85938L16.0312 3.98438C16.3594 3.60938 16.125 3 15.6094 3H2.25C0.984375 3 0 4.03125 0 5.25V21.75C0 23.0156 0.984375 24 2.25 24H18.75C19.9688 24 21 23.0156 21 21.75V14.3906C21 13.875 20.3906 13.6406 20.0156 13.9688L18.1406 15.8438C18.0469 15.9375 18 16.0781 18 16.2656Z" fill="white"/>
</svg>
