<svg width="10" height="13" viewBox="0 0 10 13" fill="none" xmlns="http://www.w3.org/2000/svg">
<path d="M5.83333 3.45312V0H0.625C0.278646 0 0 0.27168 0 0.609375V12.3906C0 12.7283 0.278646 13 0.625 13H9.375C9.72135 13 10 12.7283 10 12.3906V4.0625H6.45833C6.11458 4.0625 5.83333 3.78828 5.83333 3.45312ZM7.5 9.44531C7.5 9.61289 7.35938 9.75 7.1875 9.75H2.8125C2.64062 9.75 2.5 9.61289 2.5 9.44531V9.24219C2.5 9.07461 2.64062 8.9375 2.8125 8.9375H7.1875C7.35938 8.9375 7.5 9.07461 7.5 9.24219V9.44531ZM7.5 7.82031C7.5 7.98789 7.35938 8.125 7.1875 8.125H2.8125C2.64062 8.125 2.5 7.98789 2.5 7.82031V7.61719C2.5 7.44961 2.64062 7.3125 2.8125 7.3125H7.1875C7.35938 7.3125 7.5 7.44961 7.5 7.61719V7.82031ZM7.5 5.99219V6.19531C7.5 6.36289 7.35938 6.5 7.1875 6.5H2.8125C2.64062 6.5 2.5 6.36289 2.5 6.19531V5.99219C2.5 5.82461 2.64062 5.6875 2.8125 5.6875H7.1875C7.35938 5.6875 7.5 5.82461 7.5 5.99219ZM10 3.09512V3.25H6.66667V0H6.82552C6.99219 0 7.15104 0.0634766 7.26823 0.177734L9.81771 2.66602C9.9349 2.78027 10 2.93516 10 3.09512Z" fill="#E3C791"/>
</svg>
