<svg width="23" height="17" viewBox="0 0 23 17" fill="none" xmlns="http://www.w3.org/2000/svg">
<path d="M3.625 7.125C4.85547 7.125 5.875 6.14062 5.875 4.875C5.875 3.64453 4.85547 2.625 3.625 2.625C2.35938 2.625 1.375 3.64453 1.375 4.875C1.375 6.14062 2.35938 7.125 3.625 7.125ZM19.375 7.125C20.6055 7.125 21.625 6.14062 21.625 4.875C21.625 3.64453 20.6055 2.625 19.375 2.625C18.1094 2.625 17.125 3.64453 17.125 4.875C17.125 6.14062 18.1094 7.125 19.375 7.125ZM20.5 8.25H18.25C17.6172 8.25 17.0547 8.53125 16.6328 8.91797C18.0742 9.69141 19.0586 11.0977 19.3047 12.75H21.625C22.2227 12.75 22.75 12.2578 22.75 11.625V10.5C22.75 9.26953 21.7305 8.25 20.5 8.25ZM11.5 8.25C13.6445 8.25 15.4375 6.49219 15.4375 4.3125C15.4375 2.16797 13.6445 0.375 11.5 0.375C9.32031 0.375 7.5625 2.16797 7.5625 4.3125C7.5625 6.49219 9.32031 8.25 11.5 8.25ZM14.1719 9.375H13.8906C13.1523 9.72656 12.3438 9.9375 11.5 9.9375C10.6211 9.9375 9.8125 9.72656 9.07422 9.375H8.79297C6.54297 9.375 4.75 11.2031 4.75 13.4531V14.4375C4.75 15.3867 5.48828 16.125 6.4375 16.125H16.5625C17.4766 16.125 18.25 15.3867 18.25 14.4375V13.4531C18.25 11.2031 16.4219 9.375 14.1719 9.375ZM6.33203 8.91797C5.91016 8.53125 5.34766 8.25 4.75 8.25H2.5C1.23438 8.25 0.25 9.26953 0.25 10.5V11.625C0.25 12.2578 0.742188 12.75 1.375 12.75H3.66016C3.90625 11.0977 4.89062 9.69141 6.33203 8.91797Z" fill="#477EE9"/>
</svg>
