<svg width="24" height="24" viewBox="0 0 24 24" fill="none" xmlns="http://www.w3.org/2000/svg">
<path d="M10.125 0C9.46875 0 9 0.515625 9 1.125V9H4.875C4.03125 9 3.60938 10.0312 4.21875 10.6406L11.3438 17.7656C11.6719 18.0938 12.2812 18.0938 12.6094 17.7656L19.7344 10.6406C20.3438 10.0312 19.9219 9 19.0781 9H15V1.125C15 0.515625 14.4844 0 13.875 0H10.125ZM24 17.625C24 17.0156 23.4844 16.5 22.875 16.5H15.9844L13.6875 18.7969C12.75 19.7812 11.2031 19.7812 10.2656 18.7969L7.96875 16.5H1.125C0.46875 16.5 0 17.0156 0 17.625V22.875C0 23.5312 0.46875 24 1.125 24H22.875C23.4844 24 24 23.5312 24 22.875V17.625ZM18.1875 21.75C18.1875 22.2656 17.7656 22.6875 17.25 22.6875C16.7344 22.6875 16.3125 22.2656 16.3125 21.75C16.3125 21.2344 16.7344 20.8125 17.25 20.8125C17.7656 20.8125 18.1875 21.2344 18.1875 21.75ZM21.1875 21.75C21.1875 22.2656 20.7656 22.6875 20.25 22.6875C19.7344 22.6875 19.3125 22.2656 19.3125 21.75C19.3125 21.2344 19.7344 20.8125 20.25 20.8125C20.7656 20.8125 21.1875 21.2344 21.1875 21.75Z" fill="white"/>
</svg>
