<svg width="18" height="21" viewBox="0 0 18 21" fill="none" xmlns="http://www.w3.org/2000/svg">
<g clip-path="url(#clip0)">
<path d="M1.28571 19.0311C1.28571 20.1185 2.14915 20.9999 3.21429 20.9999H14.7857C15.8508 20.9999 16.7143 20.1185 16.7143 19.0311V5.24988H1.28571V19.0311ZM12.2143 8.53113C12.2143 8.16856 12.502 7.87488 12.8571 7.87488C13.2123 7.87488 13.5 8.16856 13.5 8.53113V17.7186C13.5 18.0812 13.2123 18.3749 12.8571 18.3749C12.502 18.3749 12.2143 18.0812 12.2143 17.7186V8.53113ZM8.35714 8.53113C8.35714 8.16856 8.64482 7.87488 9 7.87488C9.35518 7.87488 9.64286 8.16856 9.64286 8.53113V17.7186C9.64286 18.0812 9.35518 18.3749 9 18.3749C8.64482 18.3749 8.35714 18.0812 8.35714 17.7186V8.53113ZM4.5 8.53113C4.5 8.16856 4.78768 7.87488 5.14286 7.87488C5.49804 7.87488 5.78571 8.16856 5.78571 8.53113V17.7186C5.78571 18.0812 5.49804 18.3749 5.14286 18.3749C4.78768 18.3749 4.5 18.0812 4.5 17.7186V8.53113ZM17.3571 1.31238H12.5357L12.158 0.545391C11.9949 0.211114 11.6602 -0.00052689 11.2942 -0.000116734H6.70179C6.33656 -0.0013472 6.00228 0.210293 5.84196 0.545391L5.46429 1.31238H0.642857C0.287679 1.31238 0 1.60606 0 1.96863V3.28113C0 3.64371 0.287679 3.93738 0.642857 3.93738H17.3571C17.7123 3.93738 18 3.64371 18 3.28113V1.96863C18 1.60606 17.7123 1.31238 17.3571 1.31238Z" fill="#666666"/>
</g>
<defs>
<clipPath id="clip0">
<rect width="18" height="21" fill="white"/>
</clipPath>
</defs>
</svg>
