<svg xmlns="http://www.w3.org/2000/svg" width="23.724" height="23.724" viewBox="0 0 23.724 23.724">
  <g id="패스_18" data-name="패스 18" fill="none">
    <path d="M9.052,0A9.052,9.052,0,1,1,0,9.052,9.052,9.052,0,0,1,9.052,0Z" stroke="none"/>
    <path d="M 9.051534652709961 3.000004768371582 C 5.714715003967285 3.000004768371582 3.000004768371582 5.714715003967285 3.000004768371582 9.051534652709961 C 3.000004768371582 12.38835525512695 5.714715003967285 15.10306453704834 9.051534652709961 15.10306453704834 C 12.38835525512695 15.10306453704834 15.10306453704834 12.38835525512695 15.10306453704834 9.051534652709961 C 15.10306453704834 5.714715003967285 12.38835525512695 3.000004768371582 9.051534652709961 3.000004768371582 M 9.051534652709961 3.814697265625e-06 C 14.0505542755127 3.814697265625e-06 18.10306549072266 4.052515029907227 18.10306549072266 9.051534652709961 C 18.10306549072266 14.0505542755127 14.0505542755127 18.10306549072266 9.051534652709961 18.10306549072266 C 4.052515029907227 18.10306549072266 3.814697265625e-06 14.0505542755127 3.814697265625e-06 9.051534652709961 C 3.814697265625e-06 4.052515029907227 4.052515029907227 3.814697265625e-06 9.051534652709961 3.814697265625e-06 Z" stroke="none" fill="#676767"/>
  </g>
  <line id="선_1" data-name="선 1" x2="7" y2="7" transform="translate(14.603 14.603)" fill="none" stroke="#676767" stroke-linecap="round" stroke-width="3"/>
</svg>
