<svg xmlns="http://www.w3.org/2000/svg" width="25" height="25" viewBox="0 0 25 25">
  <path id="패스_23" data-name="패스 23" d="M74.325,17.5l-2.243,1.24a9.3,9.3,0,0,1,0,3.538l2.243,1.24a.6.6,0,0,1,.29.706,12.438,12.438,0,0,1-2.88,4.768.654.654,0,0,1-.779.116l-2.243-1.24a10.053,10.053,0,0,1-3.2,1.769v2.475a.61.61,0,0,1-.495.59,13.813,13.813,0,0,1-5.75,0,.61.61,0,0,1-.495-.59v-2.48a10.37,10.37,0,0,1-3.2-1.769L53.332,29.1a.646.646,0,0,1-.779-.116,12.364,12.364,0,0,1-2.88-4.768.592.592,0,0,1,.29-.706l2.243-1.24a9.3,9.3,0,0,1,0-3.538l-2.243-1.24a.6.6,0,0,1-.29-.706,12.438,12.438,0,0,1,2.88-4.768.654.654,0,0,1,.779-.116l2.243,1.24a10.052,10.052,0,0,1,3.2-1.769V8.891a.61.61,0,0,1,.495-.59,13.813,13.813,0,0,1,5.75,0,.61.61,0,0,1,.495.59v2.48a10.37,10.37,0,0,1,3.2,1.769L70.96,11.9a.646.646,0,0,1,.779.116,12.364,12.364,0,0,1,2.88,4.768A.611.611,0,0,1,74.325,17.5ZM62.141,16.472A4.036,4.036,0,1,0,66.353,20.5,4.131,4.131,0,0,0,62.141,16.472Z" transform="translate(-49.644 -7.999)" fill="#676767"/>
</svg>
