<svg width="48" height="64" viewBox="0 0 48 64" fill="none" xmlns="http://www.w3.org/2000/svg">
<path d="M28 17V0H3C1.25 0 0 1.375 0 3V61C0 62.75 1.25 64 3 64H45C46.625 64 48 62.75 48 61V20H31C29.25 20 28 18.75 28 17ZM36.125 44.125H28V54.125C28 55.125 27 56.125 26 56.125H22C20.875 56.125 20 55.125 20 54.125V44.125H11.75C10 44.125 9.125 41.875 10.375 40.625L22.375 28.625C23.25 27.875 24.625 27.875 25.5 28.625L37.5 40.625C38.75 41.875 37.875 44.125 36.125 44.125ZM47.125 13.125L34.875 0.875C34.25 0.375 33.5 0 32.75 0H32V16H48V15.25C48 14.5 47.625 13.75 47.125 13.125Z" fill="white"/>
</svg>
