<svg width="24" height="20" viewBox="0 0 24 20" fill="none" xmlns="http://www.w3.org/2000/svg">
<path d="M2.25 0.25C0.984375 0.25 0 1.28125 0 2.5C0 3.76562 0.984375 4.75 2.25 4.75C3.46875 4.75 4.5 3.76562 4.5 2.5C4.5 1.28125 3.46875 0.25 2.25 0.25ZM2.25 7.75C0.984375 7.75 0 8.78125 0 10C0 11.2656 0.984375 12.25 2.25 12.25C3.46875 12.25 4.5 11.2656 4.5 10C4.5 8.78125 3.46875 7.75 2.25 7.75ZM2.25 15.25C0.984375 15.25 0 16.2812 0 17.5C0 18.7656 0.984375 19.75 2.25 19.75C3.46875 19.75 4.5 18.7656 4.5 17.5C4.5 16.2812 3.46875 15.25 2.25 15.25ZM23.25 16H8.25C7.82812 16 7.5 16.375 7.5 16.75V18.25C7.5 18.6719 7.82812 19 8.25 19H23.25C23.625 19 24 18.6719 24 18.25V16.75C24 16.375 23.625 16 23.25 16ZM23.25 1H8.25C7.82812 1 7.5 1.375 7.5 1.75V3.25C7.5 3.67188 7.82812 4 8.25 4H23.25C23.625 4 24 3.67188 24 3.25V1.75C24 1.375 23.625 1 23.25 1ZM23.25 8.5H8.25C7.82812 8.5 7.5 8.875 7.5 9.25V10.75C7.5 11.1719 7.82812 11.5 8.25 11.5H23.25C23.625 11.5 24 11.1719 24 10.75V9.25C24 8.875 23.625 8.5 23.25 8.5Z" fill="white"/>
</svg>
