<svg xmlns="http://www.w3.org/2000/svg" width="10.708" height="11.529" viewBox="0 0 10.708 11.529">
  <path id="클립" d="M.81,8.729A2.934,2.934,0,0,1,.836,4.654L4.764.636a2.1,2.1,0,0,1,3.009,0,2.18,2.18,0,0,1,0,3.039l-3.424,3.5a1.4,1.4,0,0,1-2.022-.019,1.451,1.451,0,0,1,.027-2L5.046,2.4a.3.3,0,0,1,.424,0l.428.419a.3.3,0,0,1,0,.424L3.211,5.991a.253.253,0,0,0-.012.343.2.2,0,0,0,.294,0l3.424-3.5a.981.981,0,0,0,0-1.363.9.9,0,0,0-1.3,0L1.693,5.492a1.734,1.734,0,0,0-.022,2.4,1.6,1.6,0,0,0,2.3.005L7.2,4.6a.3.3,0,0,1,.424,0l.428.419a.3.3,0,0,1,0,.424l-3.222,3.3A2.794,2.794,0,0,1,.81,8.729Z" transform="translate(0 2.313) rotate(-16)" fill="#888"/>
</svg>
