<svg width="20" height="21" viewBox="0 0 20 21" fill="none" xmlns="http://www.w3.org/2000/svg">
<path d="M9.8 0.751999C10.304 0.751999 10.76 0.895999 11.168 1.184C11.6 1.448 11.816 1.868 11.816 2.444V8.276H17.684C18.212 8.276 18.596 8.456 18.836 8.816C19.1 9.176 19.232 9.608 19.232 10.112C19.232 10.616 19.1 11.06 18.836 11.444C18.596 11.804 18.212 11.984 17.684 11.984H11.816V18.356C11.816 18.932 11.6 19.364 11.168 19.652C10.76 19.916 10.304 20.048 9.8 20.048C9.296 20.048 8.828 19.916 8.396 19.652C7.988 19.364 7.784 18.932 7.784 18.356V11.984H1.916C1.388 11.984 0.992 11.804 0.728 11.444C0.488 11.06 0.368 10.616 0.368 10.112C0.368 9.608 0.488 9.176 0.728 8.816C0.992 8.456 1.388 8.276 1.916 8.276H7.784V2.444C7.784 1.868 7.988 1.448 8.396 1.184C8.828 0.895999 9.296 0.751999 9.8 0.751999Z" fill="#98B8F6"/>
</svg>
