<svg width="13" height="15" viewBox="0 0 13 15" fill="none" xmlns="http://www.w3.org/2000/svg">
<path d="M1.2549 13.6565C-0.440614 11.8902 -0.409013 9.04193 1.29512 7.28207L7.3819 0.996107C8.66786 -0.331977 10.7582 -0.332094 12.0442 0.996107C13.3178 2.31136 13.3194 4.43348 12.0442 5.75028L6.73834 11.2245C5.87202 12.1191 4.45658 12.1066 3.60494 11.1952C2.78446 10.3172 2.81078 8.9255 3.64707 8.06183L7.81819 3.76003C7.99757 3.57505 8.29152 3.57188 8.47474 3.75297L9.13812 4.4086C9.32137 4.58972 9.32447 4.88649 9.14511 5.07147L4.97444 9.37286C4.83132 9.52067 4.8225 9.76626 4.95563 9.90876C5.0825 10.0445 5.28194 10.0468 5.41086 9.91359L10.7167 4.43945C11.2859 3.8517 11.2859 2.89478 10.7164 2.3067C10.1596 1.73169 9.26678 1.7314 8.70973 2.3067L2.62292 8.59263C1.61417 9.63442 1.59862 11.3208 2.58836 12.3518C3.57525 13.3799 5.17051 13.3812 6.15923 12.3602L11.152 7.20396C11.3313 7.01883 11.6252 7.01549 11.8086 7.19646L12.4724 7.85165C12.6558 8.03262 12.6591 8.3294 12.4799 8.51452L7.48706 13.6707C5.7583 15.456 2.96193 15.4348 1.2549 13.6565Z" fill="#333333"/>
</svg>
