<svg width="48" height="64" viewBox="0 0 48 64" fill="none" xmlns="http://www.w3.org/2000/svg">
<path d="M28 17V0H3C1.25 0 0 1.375 0 3V61C0 62.75 1.25 64 3 64H45C46.625 64 48 62.75 48 61V20H31C29.25 20 28 18.75 28 17ZM35.5 30.375L28 42L35.5 53.75C36.125 54.75 35.375 56 34.25 56H29.875C29.25 56 28.75 55.75 28.5 55.25C26 50.75 24 46.625 24 46.625C23.125 48.5 22.75 49.125 19.375 55.25C19.125 55.75 18.625 56.125 18 56.125H13.75C12.5 56.125 11.75 54.75 12.375 53.75L20 42.125L12.375 30.375C11.75 29.375 12.5 28.125 13.75 28.125H18C18.625 28.125 19.125 28.375 19.375 28.875C22.625 35 21.875 33 24 37.375C24 37.375 24.75 36 28.5 28.875C28.75 28.375 29.25 28.125 29.875 28.125H34.25C35.375 28 36.125 29.375 35.5 30.375ZM48 15.25C48 14.5 47.625 13.75 47.125 13.125L34.875 0.875C34.25 0.375 33.5 0 32.75 0H32V16H48V15.25Z" fill="white"/>
</svg>
