<svg width="15" height="16" viewBox="0 0 15 16" fill="none" xmlns="http://www.w3.org/2000/svg">
<path d="M1.07143 14.5C1.07143 15.3284 1.79096 16 2.67857 16H12.3214C13.209 16 13.9286 15.3284 13.9286 14.5V4H1.07143V14.5ZM10.1786 6.5C10.1786 6.22375 10.4183 6 10.7143 6C11.0103 6 11.25 6.22375 11.25 6.5V13.5C11.25 13.7763 11.0103 14 10.7143 14C10.4183 14 10.1786 13.7763 10.1786 13.5V6.5ZM6.96429 6.5C6.96429 6.22375 7.20402 6 7.5 6C7.79598 6 8.03571 6.22375 8.03571 6.5V13.5C8.03571 13.7763 7.79598 14 7.5 14C7.20402 14 6.96429 13.7763 6.96429 13.5V6.5ZM3.75 6.5C3.75 6.22375 3.98973 6 4.28571 6C4.5817 6 4.82143 6.22375 4.82143 6.5V13.5C4.82143 13.7763 4.5817 14 4.28571 14C3.98973 14 3.75 13.7763 3.75 13.5V6.5ZM14.4643 1H10.4464L10.1317 0.415629C9.99576 0.160942 9.71685 -0.000308434 9.41183 4.06595e-06H5.58482C5.28047 -0.000933434 5.0019 0.160317 4.8683 0.415629L4.55357 1H0.535714C0.239732 1 0 1.22375 0 1.5V2.5C0 2.77625 0.239732 3 0.535714 3H14.4643C14.7603 3 15 2.77625 15 2.5V1.5C15 1.22375 14.7603 1 14.4643 1Z" fill="#F1555B"/>
</svg>
