<svg width="24" height="24" viewBox="0 0 24 24" fill="none" xmlns="http://www.w3.org/2000/svg">
<path d="M21 9V3.65625C21 3.23438 20.8125 2.85938 20.5312 2.57812L18.4219 0.46875C18.1406 0.1875 17.7656 0 17.3438 0H4.5C3.65625 0 3 0.703125 3 1.5V9C1.3125 9 0 10.3594 0 12V17.25C0 17.6719 0.328125 18 0.75 18H3V22.5C3 23.3438 3.65625 24 4.5 24H19.5C20.2969 24 21 23.3438 21 22.5V18H23.25C23.625 18 24 17.6719 24 17.25V12C24 10.3594 22.6406 9 21 9ZM18 21H6V16.5H18V21ZM18 10.5H6V3H15V5.25C15 5.67188 15.3281 6 15.75 6H18V10.5ZM20.25 13.875C19.5938 13.875 19.125 13.4062 19.125 12.75C19.125 12.1406 19.5938 11.625 20.25 11.625C20.8594 11.625 21.375 12.1406 21.375 12.75C21.375 13.4062 20.8594 13.875 20.25 13.875Z" fill="white"/>
</svg>
