<svg width="25" height="17" viewBox="0 0 25 17" fill="none" xmlns="http://www.w3.org/2000/svg">
<path d="M7.5 8.5C9.91797 8.5 11.875 6.59888 11.875 4.25C11.875 1.90112 9.91797 0 7.5 0C5.08203 0 3.125 1.90112 3.125 4.25C3.125 6.59888 5.08203 8.5 7.5 8.5ZM10.5 9.71429H10.1758C9.36328 10.0938 8.46094 10.3214 7.5 10.3214C6.53906 10.3214 5.64062 10.0938 4.82422 9.71429H4.5C2.01562 9.71429 0 11.6723 0 14.0857V15.1786C0 16.1842 0.839844 17 1.875 17H13.125C14.1602 17 15 16.1842 15 15.1786V14.0857C15 11.6723 12.9844 9.71429 10.5 9.71429ZM18.75 8.5C20.8203 8.5 22.5 6.8683 22.5 4.85714C22.5 2.84598 20.8203 1.21429 18.75 1.21429C16.6797 1.21429 15 2.84598 15 4.85714C15 6.8683 16.6797 8.5 18.75 8.5ZM20.625 9.71429H20.4766C19.9336 9.89643 19.3594 10.0179 18.75 10.0179C18.1406 10.0179 17.5664 9.89643 17.0234 9.71429H16.875C16.0781 9.71429 15.3438 9.93817 14.6992 10.2987C15.6523 11.2967 16.25 12.621 16.25 14.0857V15.5429C16.25 15.6263 16.2305 15.706 16.2266 15.7857H23.125C24.1602 15.7857 25 14.9699 25 13.9643C25 11.6154 23.043 9.71429 20.625 9.71429Z" fill="#D4682A"/>
</svg>
