<svg width="14" height="20" viewBox="0 0 14 20" fill="none" xmlns="http://www.w3.org/2000/svg">
<path d="M3.82057 17.7472C3.82097 17.9929 3.89494 18.2336 4.03375 18.4382L4.71347 19.4418C4.82958 19.6133 4.98707 19.754 5.17193 19.8513C5.35679 19.9486 5.56327 19.9996 5.77301 19.9996H8.22739C8.43713 19.9996 8.64361 19.9486 8.82847 19.8513C9.01332 19.754 9.17082 19.6133 9.28693 19.4418L9.96665 18.4382C10.1054 18.2335 10.1796 17.9931 10.1798 17.7472L10.1814 16.2492H3.81858L3.82057 17.7472ZM0 6.87418C0 8.60738 0.654261 10.1886 1.7325 11.3968C2.38955 12.1332 3.41727 13.6714 3.80903 14.9691C3.81062 14.9793 3.81182 14.9894 3.81341 14.9996H10.1866C10.1882 14.9894 10.1894 14.9796 10.191 14.9691C10.5827 13.6714 11.6105 12.1332 12.2675 11.3968C13.3457 10.1886 14 8.60738 14 6.87418C14 3.06988 10.8544 -0.0125399 6.97812 -0.000821188C2.92091 0.0112882 0 3.24019 0 6.87418ZM7 3.74918C5.24563 3.74918 3.81818 5.15113 3.81818 6.87418C3.81818 7.21949 3.53341 7.49918 3.18182 7.49918C2.83023 7.49918 2.54545 7.21949 2.54545 6.87418C2.54545 4.46168 4.54364 2.49918 7 2.49918C7.35159 2.49918 7.63636 2.77887 7.63636 3.12418C7.63636 3.46949 7.35159 3.74918 7 3.74918Z" fill="#ECB937"/>
</svg>
