<svg width="18" height="20" viewBox="0 0 18 20" fill="none" xmlns="http://www.w3.org/2000/svg">
<path d="M1.28571 18.1249C1.28571 19.1604 2.14915 19.9999 3.21429 19.9999H14.7857C15.8508 19.9999 16.7143 19.1604 16.7143 18.1249V4.99988H1.28571V18.1249ZM12.2143 8.12488C12.2143 7.77957 12.502 7.49988 12.8571 7.49988C13.2123 7.49988 13.5 7.77957 13.5 8.12488V16.8749C13.5 17.2202 13.2123 17.4999 12.8571 17.4999C12.502 17.4999 12.2143 17.2202 12.2143 16.8749V8.12488ZM8.35714 8.12488C8.35714 7.77957 8.64482 7.49988 9 7.49988C9.35518 7.49988 9.64286 7.77957 9.64286 8.12488V16.8749C9.64286 17.2202 9.35518 17.4999 9 17.4999C8.64482 17.4999 8.35714 17.2202 8.35714 16.8749V8.12488ZM4.5 8.12488C4.5 7.77957 4.78768 7.49988 5.14286 7.49988C5.49804 7.49988 5.78571 7.77957 5.78571 8.12488V16.8749C5.78571 17.2202 5.49804 17.4999 5.14286 17.4999C4.78768 17.4999 4.5 17.2202 4.5 16.8749V8.12488ZM17.3571 1.24988H12.5357L12.158 0.519414C11.9949 0.201055 11.6602 -0.000507613 11.2942 -0.000116988H6.70179C6.33656 -0.00128886 6.00228 0.200274 5.84196 0.519414L5.46429 1.24988H0.642857C0.287679 1.24988 0 1.52957 0 1.87488V3.12488C0 3.4702 0.287679 3.74988 0.642857 3.74988H17.3571C17.7123 3.74988 18 3.4702 18 3.12488V1.87488C18 1.52957 17.7123 1.24988 17.3571 1.24988Z" fill="#98B8F6"/>
</svg>
