<svg xmlns="http://www.w3.org/2000/svg" width="110.81" height="15.5" viewBox="0 0 110.81 15.5">
  <g id="logo" transform="translate(-396.511 -118.853)">
    <g id="그룹_1" data-name="그룹 1" transform="translate(396.511 121.387)">
      <path id="패스_2" data-name="패스 2" d="M412.449,126.846c0-2.143-1.236-3.094-2.711-3.094a2.944,2.944,0,0,0-3.118,3.187v7.491h-2.142v-7.583c0-2.143-1.235-3.094-2.71-3.094a2.943,2.943,0,0,0-3.116,3.187v7.491h-2.141V122.042h2.141v1.476h.052a3.653,3.653,0,0,1,3.419-1.763,3.833,3.833,0,0,1,3.664,2.141,4.217,4.217,0,0,1,4.044-2.141,4.457,4.457,0,0,1,4.757,4.857v7.817h-2.138Z" transform="translate(-396.511 -121.755)" fill="#4b4848"/>
      <path id="패스_3" data-name="패스 3" d="M426.874,121.755a6.537,6.537,0,0,1,6.707,6.494,6.713,6.713,0,0,1-13.417,0A6.537,6.537,0,0,1,426.874,121.755Zm-4.425,6.494a4.424,4.424,0,1,0,8.848,0,4.424,4.424,0,1,0-8.848,0Z" transform="translate(-399.512 -121.755)" fill="#4b4848"/>
      <path id="패스_4" data-name="패스 4" d="M444.832,121.755a6.537,6.537,0,0,1,6.707,6.494,6.71,6.71,0,0,1-13.412,0A6.533,6.533,0,0,1,444.832,121.755Zm-4.424,6.494a4.424,4.424,0,1,0,8.847,0,4.424,4.424,0,1,0-8.847,0Z" transform="translate(-401.79 -121.755)" fill="#4b4848"/>
      <path id="패스_5" data-name="패스 5" d="M477.565,127.226c0-1.859-.759-3.474-2.878-3.474-2,0-3.211,1.357-3.211,3.709v6.969h-2.142V122.042h2.142v1.451h.05a3.882,3.882,0,0,1,3.4-1.738c2.4,0,4.783,1.311,4.783,4.659v8.015h-2.143Z" transform="translate(-405.749 -121.755)" fill="#4b4848"/>
      <path id="패스_6" data-name="패스 6" d="M500.343,126.846c0-2.143-1.241-3.094-2.712-3.094a2.941,2.941,0,0,0-3.117,3.187v7.491H492.37v-7.583c0-2.143-1.238-3.094-2.707-3.094a2.942,2.942,0,0,0-3.119,3.187v7.491H484.4V122.042h2.144v1.476h.046a3.667,3.667,0,0,1,3.429-1.763,3.837,3.837,0,0,1,3.661,2.141,4.214,4.214,0,0,1,4.044-2.141,4.46,4.46,0,0,1,4.758,4.857v7.817h-2.14Z" transform="translate(-407.66 -121.755)" fill="#4b4848"/>
      <path id="패스_7" data-name="패스 7" d="M514.763,121.755a6.537,6.537,0,0,1,6.709,6.494,6.71,6.71,0,0,1-13.412,0A6.534,6.534,0,0,1,514.763,121.755Zm-4.419,6.494a4.422,4.422,0,1,0,8.844,0,4.423,4.423,0,1,0-8.844,0Z" transform="translate(-410.662 -121.755)" fill="#4b4848"/>
    </g>
    <path id="패스_8" data-name="패스 8" d="M457.178,133.8v-8.646a6.464,6.464,0,0,1,1.551-4.752q1.551-1.551,5.063-1.549h2.4v2.991h-2.318c-1.4,0-2.344.338-2.812,1.014a3.927,3.927,0,0,0-.7,2.3V133.8Z" transform="translate(-7.696 0)" fill="#66b821"/>
  </g>
</svg>
